<svg width="300" height="300" viewBox="0 0 300 300" fill="none" xmlns="http://www.w3.org/2000/svg">
  <!-- Background document -->
  <rect x="50" y="30" width="160" height="210" rx="8" fill="white" stroke="#1976d2" stroke-width="4"/>
  
  <!-- Document lines -->
  <line x1="70" y1="70" x2="190" y2="70" stroke="#1976d2" stroke-width="3"/>
  <line x1="70" y1="100" x2="190" y2="100" stroke="#1976d2" stroke-width="3"/>
  <line x1="70" y1="130" x2="130" y2="130" stroke="#1976d2" stroke-width="3"/>
  <line x1="70" y1="160" x2="190" y2="160" stroke="#1976d2" stroke-width="3"/>
  <line x1="70" y1="190" x2="160" y2="190" stroke="#1976d2" stroke-width="3"/>
  
  <!-- Magnifying glass -->
  <circle cx="190" cy="180" r="60" fill="white" stroke="#1976d2" stroke-width="6"/>
  <circle cx="190" cy="180" r="40" fill="rgba(25, 118, 210, 0.1)" stroke="#1976d2" stroke-width="3"/>
  <line x1="235" y1="225" x2="260" y2="250" stroke="#1976d2" stroke-width="8" stroke-linecap="round"/>
  
  <!-- AI nodes/brain visualization -->
  <circle cx="190" cy="180" r="4" fill="#1976d2"/>
  <circle cx="175" cy="165" r="4" fill="#1976d2"/>
  <circle cx="205" cy="165" r="4" fill="#1976d2"/>
  <circle cx="175" cy="195" r="4" fill="#1976d2"/>
  <circle cx="205" cy="195" r="4" fill="#1976d2"/>
  
  <!-- Neural network connections -->
  <line x1="190" y1="180" x2="175" y2="165" stroke="#1976d2" stroke-width="2"/>
  <line x1="190" y1="180" x2="205" y2="165" stroke="#1976d2" stroke-width="2"/>
  <line x1="190" y1="180" x2="175" y2="195" stroke="#1976d2" stroke-width="2"/>
  <line x1="190" y1="180" x2="205" y2="195" stroke="#1976d2" stroke-width="2"/>
  <line x1="175" y1="165" x2="205" y2="165" stroke="#1976d2" stroke-width="2"/>
  <line x1="175" y1="195" x2="205" y2="195" stroke="#1976d2" stroke-width="2"/>
  <line x1="175" y1="165" x2="175" y2="195" stroke="#1976d2" stroke-width="2"/>
  <line x1="205" y1="165" x2="205" y2="195" stroke="#1976d2" stroke-width="2"/>
</svg> 